<?xml version="1.0" encoding="UTF-8"?>
<svg width="25" height="25" version="1.1" viewBox="0 0 128 128" xmlns="http://www.w3.org/2000/svg" fill="#666666">
 <path d="m126.08 29.441-26.879-26.879c-2.5586-2.5586-6.3984-2.5586-8.9609 0l-12.16 12.16-8.9609-8.9609c-2.5586-2.5586-6.3984-2.5586-8.9609 0l-36.477 35.84c-2.5586 2.5586-2.5586 7.0391 0 8.9609 3.8398 3.8398 7.6797 1.2812 8.9609 0l31.359-32 4.4805 4.4805-57.602 57.602c-1.2812 1.2812-1.9219 2.5586-1.9219 3.1992l-8.9609 36.48c-0.64062 1.9219 0 4.4805 1.9219 5.7617 2.5586 2.5586 5.7617 1.9219 5.7617 1.9219l36.48-8.9609s1.9219-0.64062 3.1992-1.9219l78.719-78.727c1.2812-1.2773 3.2031-5.1172 0-8.957zm-110.72 83.199 3.8398-14.719 10.879 10.879zm27.52-9.6016-17.922-17.922 69.762-69.762 17.922 17.922z"/>
</svg>
